<?xml version="1.0" encoding="UTF-8"?>
<svg version="1.1" xmlns="http://www.w3.org/2000/svg" width="164" height="60">
<path d="M0 0 C-0.3125 1.875 -0.3125 1.875 -1 4 C-1.99 4.66 -2.98 5.32 -4 6 C-2.78763672 6.16435547 -2.78763672 6.16435547 -1.55078125 6.33203125 C-0.48214844 6.49058594 0.58648437 6.64914063 1.6875 6.8125 C2.74324219 6.96332031 3.79898438 7.11414063 4.88671875 7.26953125 C8.78248313 8.18359391 11.87272931 9.49697241 14.3125 12.75 C15.32453615 16.06211832 15.42314481 18.55439226 15 22 C12.09199097 25.73886876 9.45176651 27.54727139 5 29 C2.22924805 29.22705078 2.22924805 29.22705078 -0.73828125 29.1953125 C-2.33833008 29.18564453 -2.33833008 29.18564453 -3.97070312 29.17578125 C-5.62489258 29.15064453 -5.62489258 29.15064453 -7.3125 29.125 C-8.43462891 29.11597656 -9.55675781 29.10695313 -10.71289062 29.09765625 C-13.47547909 29.07414486 -16.23762932 29.04128155 -19 29 C-19.33 25.7 -19.66 22.4 -20 19 C-22.34154796 21.34154796 -24.37732734 23.87338734 -26.46484375 26.44140625 C-29.02165613 29.03725393 -32.00866261 29.27328978 -35.5 29.5 C-43.08682169 29.45550251 -48.87293676 24.87990704 -54.2734375 19.90625 C-56.09646751 17.89349288 -56.62065204 16.65543569 -57 14 C-56.2575 14.433125 -56.2575 14.433125 -55.5 14.875 C-51.26228706 16.78197082 -46.75023059 17.6888479 -42.1875 18.5 C-40 19 -40 19 -37 21 C-32.90841917 20.79106821 -30.37621379 18.05628991 -27.375 15.5 C-22.15444015 11.07722008 -22.15444015 11.07722008 -20 10 C-19.67 9.01 -19.34 8.02 -19 7 C-16.70703125 5.9375 -16.70703125 5.9375 -13.8125 5 C-9.46086658 3.53061729 -4.47831387 0 0 0 Z M-10 11 C-10 15.62 -10 20.24 -10 25 C-4.47322267 25.19392201 -0.24385089 24.7479503 5 23 C6.11185721 18.21259808 6.11185721 18.21259808 4.875 13.625 C0.73628061 10.03810986 -4.81858636 10.91217943 -10 11 Z " fill="#26367F" transform="translate(78,13)"/>
<path d="M0 0 C3.16154548 -0.10808702 5.97900829 0.01387317 9 1 C11.01871899 3.43024849 11.94401098 6.05089077 13 9 C13.66 10.32 14.32 11.64 15 13 C16.98 9.04 18.96 5.08 21 1 C24.63 1 28.26 1 32 1 C32.83790789 2.78953185 33.67019396 4.58169695 34.5 6.375 C34.9640625 7.37273438 35.428125 8.37046875 35.90625 9.3984375 C37 12 37 12 37 14 C37.66 14 38.32 14 39 14 C39.103125 13.154375 39.20625 12.30875 39.3125 11.4375 C40.0828854 7.58557299 41.36274514 4.55924969 43 1 C47.455 0.505 47.455 0.505 52 0 C51.40277975 5.26715081 49.66259825 9.54001911 47.5 14.3125 C47.17902344 15.04017578 46.85804688 15.76785156 46.52734375 16.51757812 C44.15334821 21.84665179 44.15334821 21.84665179 43 23 C39.66381769 23.14257189 36.34024394 23.04228157 33 23 C30.69 18.38 28.38 13.76 26 9 C23.69 13.62 21.38 18.24 19 23 C15.7 23 12.4 23 9 23 C7.49314929 19.73216702 5.99430639 16.46106309 4.5 13.1875 C4.07074219 12.25873047 3.64148438 11.32996094 3.19921875 10.37304688 C2.79316406 9.48037109 2.38710937 8.58769531 1.96875 7.66796875 C1.59169922 6.84578857 1.21464844 6.0236084 0.82617188 5.17651367 C0 3 0 3 0 0 Z " fill="#27377F" transform="translate(90,19)"/>
<path d="M0 0 C0.49189189 6.39459459 0.49189189 6.39459459 -1.625 9 C-2.40875 9.66 -3.1925 10.32 -4 11 C-5.54107614 12.81468757 -7.03974203 14.65930909 -8.53515625 16.51171875 C-11.0480975 19.06486706 -14.0725048 19.27743538 -17.5 19.5 C-25.08682169 19.45550251 -30.87293676 14.87990704 -36.2734375 9.90625 C-38.09646751 7.89349288 -38.62065204 6.65543569 -39 4 C-38.505 4.28875 -38.01 4.5775 -37.5 4.875 C-33.26228706 6.78197082 -28.75023059 7.6888479 -24.1875 8.5 C-22 9 -22 9 -19 11 C-14.90841917 10.79106821 -12.37621379 8.05628991 -9.375 5.5 C-2.88291139 0 -2.88291139 0 0 0 Z " fill="#EE7D22" transform="translate(60,23)"/>
<path d="M0 0 C-0.36247096 2.62791446 -0.76454757 3.77739043 -2.71875 5.625 C-5.46870056 7.28250445 -7.06978456 7.31303482 -10.25 7.1875 C-11.14203125 7.16042969 -12.0340625 7.13335938 -12.953125 7.10546875 C-13.96632813 7.05326172 -13.96632813 7.05326172 -15 7 C-12.61666905 4.25484323 -10.31090681 3.10919982 -6.9375 1.8125 C-6.05964844 1.46832031 -5.18179688 1.12414062 -4.27734375 0.76953125 C-2 0 -2 0 0 0 Z " fill="#F27F1F" transform="translate(78,13)"/>
<path d="" fill="#F07E22" transform="translate(0,0)"/>
</svg>
